<svg width="96.000000" height="102.000000" viewBox="0 0 96 102" fill="none" xmlns="http://www.w3.org/2000/svg" xmlns:xlink="http://www.w3.org/1999/xlink">
	<desc>
			Created with Pixso.
	</desc>
	<defs>
		<clipPath id="clip1_130">
			<rect id="Electricians 1" rx="-0.500000" width="95.000000" height="101.000000" transform="translate(0.500000 0.500000)" fill="white" fill-opacity="0"/>
		</clipPath>
	</defs>
	<rect id="Electricians 1" rx="-0.500000" width="95.000000" height="101.000000" transform="translate(0.500000 0.500000)" fill="#FFFFFF" fill-opacity="0"/>
	<g clip-path="url(#clip1_130)">
		<path id="Vector" d="M39.34 41.02C39.36 41.03 39.37 41.05 39.38 41.07C39.39 41.08 39.39 41.1 39.39 41.12L40.03 47.89C40.12 48.93 40.6 49.89 41.37 50.59C42.14 51.29 43.15 51.68 44.19 51.67L51.81 51.67C52.85 51.68 53.85 51.29 54.62 50.59C55.39 49.89 55.87 48.93 55.96 47.89L56.6 41.12C56.61 41.1 56.61 41.08 56.62 41.06C56.63 41.04 56.64 41.03 56.66 41.02C58.81 39.24 60.36 36.84 61.09 34.14C61.83 31.45 61.71 28.6 60.76 25.97C59.82 23.35 58.08 21.08 55.8 19.48C53.51 17.87 50.79 17.01 48 17.02L47.95 17.02C45.16 17.02 42.44 17.89 40.16 19.5C37.89 21.11 36.16 23.38 35.22 26C34.28 28.62 34.17 31.47 34.91 34.16C35.65 36.85 37.19 39.24 39.34 41.02ZM37.36 30.22C37.55 24.57 42.3 19.96 47.96 19.94L48 19.94C50.19 19.94 52.32 20.62 54.11 21.87C55.9 23.13 57.26 24.91 58.01 26.97C58.75 29.03 58.84 31.27 58.26 33.38C57.69 35.49 56.47 37.37 54.79 38.77C54.48 39.03 54.22 39.34 54.03 39.7C53.84 40.06 53.72 40.45 53.69 40.85L53.05 47.62C53.02 47.93 52.88 48.22 52.65 48.42C52.42 48.63 52.12 48.75 51.81 48.75L44.19 48.75C43.87 48.75 43.58 48.63 43.35 48.42C43.12 48.21 42.97 47.93 42.95 47.62L42.31 40.85C42.28 40.45 42.16 40.06 41.97 39.7C41.78 39.34 41.53 39.03 41.21 38.77C39.96 37.74 38.96 36.43 38.29 34.94C37.62 33.46 37.3 31.84 37.36 30.22Z" fill="#4F4F4F" fill-opacity="1.000000" fill-rule="nonzero"/>
		<path id="Vector" d="M39.51 29.8C39.56 29.81 39.61 29.82 39.66 29.82C39.83 29.82 39.99 29.76 40.12 29.65C40.25 29.54 40.34 29.4 40.37 29.23C40.79 27.2 42.01 24.54 45.56 23.42C45.65 23.39 45.74 23.35 45.82 23.29C45.9 23.23 45.96 23.15 46.01 23.06C46.06 22.98 46.09 22.88 46.1 22.78C46.11 22.68 46.1 22.58 46.07 22.49C46.04 22.39 45.99 22.31 45.93 22.23C45.86 22.16 45.78 22.09 45.69 22.05C45.6 22.01 45.51 21.98 45.41 21.98C45.31 21.97 45.21 21.99 45.11 22.02C41.81 23.07 39.62 25.53 38.94 28.94C38.92 29.04 38.92 29.13 38.94 29.23C38.96 29.32 38.99 29.41 39.05 29.49C39.1 29.57 39.17 29.64 39.25 29.69C39.33 29.75 39.42 29.79 39.51 29.8Z" fill="#4F4F4F" fill-opacity="1.000000" fill-rule="nonzero"/>
		<path id="Vector" d="M95.99 42.79L70.31 0L25.68 0L19.81 9.77L19.81 6.52L9.4 6.52L9.4 27.11L0 42.79L8.23 42.79L13.32 83.72L42.7 83.72C43.08 83.71 43.44 83.55 43.7 83.27C43.96 83 44.11 82.64 44.11 82.26C44.11 81.88 43.96 81.52 43.7 81.24C43.44 80.97 43.08 80.81 42.7 80.8L15.9 80.8L11.18 42.79L35.35 42.79C35.54 42.8 35.74 42.77 35.92 42.7C36.11 42.63 36.28 42.52 36.42 42.39C36.56 42.25 36.67 42.09 36.75 41.91C36.83 41.72 36.87 41.53 36.87 41.33C36.87 41.14 36.83 40.94 36.75 40.76C36.67 40.58 36.56 40.42 36.42 40.28C36.28 40.14 36.11 40.04 35.92 39.97C35.74 39.9 35.54 39.86 35.35 39.87L5.16 39.87L27.33 2.92L68.66 2.92L90.83 39.87L60.64 39.87C60.26 39.88 59.9 40.05 59.64 40.32C59.38 40.59 59.23 40.95 59.23 41.33C59.23 41.71 59.38 42.07 59.64 42.35C59.9 42.62 60.26 42.78 60.64 42.79L68.82 42.79L68.82 47.06C68.62 47.18 68.45 47.36 68.33 47.57C68.21 47.78 68.15 48.01 68.15 48.25C68.15 48.5 68.21 48.73 68.33 48.94C68.45 49.15 68.62 49.33 68.82 49.45L68.82 52.58C68.62 52.71 68.45 52.89 68.33 53.1C68.21 53.3 68.15 53.54 68.15 53.78C68.15 54.02 68.21 54.26 68.33 54.47C68.45 54.68 68.62 54.85 68.82 54.98L68.82 58.11C68.56 58.27 68.36 58.51 68.25 58.8C68.13 59.08 68.12 59.4 68.2 59.69C68.28 59.99 68.46 60.25 68.71 60.43C68.95 60.62 69.25 60.72 69.56 60.72C69.86 60.72 70.16 60.62 70.4 60.43C70.65 60.25 70.83 59.99 70.91 59.69C70.99 59.4 70.98 59.08 70.86 58.8C70.75 58.51 70.55 58.27 70.29 58.11L70.29 54.98C70.49 54.85 70.66 54.68 70.78 54.47C70.9 54.26 70.96 54.02 70.96 53.78C70.96 53.54 70.9 53.3 70.78 53.09C70.66 52.89 70.49 52.71 70.29 52.58L70.29 49.45C70.49 49.33 70.66 49.15 70.78 48.94C70.9 48.73 70.96 48.5 70.96 48.25C70.96 48.01 70.9 47.78 70.78 47.57C70.66 47.36 70.49 47.18 70.29 47.06L70.29 42.79L84.81 42.79L80.09 80.8L53.29 80.8C53.09 80.79 52.89 80.82 52.71 80.89C52.53 80.96 52.36 81.07 52.22 81.2C52.08 81.34 51.96 81.5 51.89 81.69C51.81 81.87 51.77 82.06 51.77 82.26C51.77 82.46 51.81 82.65 51.89 82.83C51.96 83.01 52.08 83.18 52.22 83.31C52.36 83.45 52.53 83.56 52.71 83.63C52.89 83.7 53.09 83.73 53.29 83.72L82.67 83.72L87.76 42.79L95.99 42.79ZM12.33 9.44L16.89 9.44L16.89 14.64L12.33 22.24L12.33 9.44Z" fill="#4F4F4F" fill-opacity="1.000000" fill-rule="nonzero"/>
		<path id="Vector" d="M46.53 64.73L46.53 88.46C46.52 88.65 46.56 88.85 46.63 89.03C46.7 89.22 46.8 89.39 46.94 89.53C47.08 89.67 47.24 89.78 47.42 89.86C47.6 89.94 47.8 89.98 47.99 89.98C48.19 89.98 48.39 89.94 48.57 89.86C48.75 89.78 48.91 89.67 49.05 89.53C49.19 89.39 49.29 89.22 49.36 89.03C49.43 88.85 49.46 88.65 49.46 88.46L49.46 64.73C49.46 64.53 49.43 64.34 49.36 64.15C49.29 63.97 49.19 63.8 49.05 63.66C48.91 63.52 48.75 63.41 48.57 63.33C48.39 63.25 48.19 63.21 47.99 63.21C47.8 63.21 47.6 63.25 47.42 63.33C47.24 63.41 47.08 63.52 46.94 63.66C46.8 63.8 46.7 63.97 46.63 64.15C46.56 64.34 46.52 64.53 46.53 64.73Z" fill="#4F4F4F" fill-opacity="1.000000" fill-rule="nonzero"/>
		<path id="Vector" d="M42.61 56.51L53.38 56.51C53.75 56.5 54.11 56.34 54.38 56.06C54.64 55.79 54.78 55.43 54.78 55.05C54.78 54.67 54.64 54.31 54.38 54.03C54.11 53.76 53.75 53.6 53.38 53.59L42.61 53.59C42.24 53.6 41.88 53.76 41.62 54.03C41.35 54.31 41.21 54.67 41.21 55.05C41.21 55.43 41.35 55.79 41.62 56.06C41.88 56.34 42.24 56.5 42.61 56.51Z" fill="#4F4F4F" fill-opacity="1.000000" fill-rule="nonzero"/>
		<path id="Vector" d="M44.5 61.35L51.49 61.35C51.69 61.36 51.88 61.33 52.07 61.26C52.25 61.19 52.42 61.08 52.56 60.94C52.7 60.81 52.82 60.64 52.89 60.46C52.97 60.28 53.01 60.09 53.01 59.89C53.01 59.69 52.97 59.5 52.89 59.32C52.82 59.14 52.7 58.97 52.56 58.84C52.42 58.7 52.25 58.59 52.07 58.52C51.88 58.45 51.69 58.42 51.49 58.43L44.5 58.43C44.11 58.43 43.74 58.58 43.46 58.86C43.19 59.13 43.03 59.5 43.03 59.89C43.03 60.28 43.19 60.65 43.46 60.93C43.74 61.2 44.11 61.35 44.5 61.35L44.5 61.35Z" fill="#4F4F4F" fill-opacity="1.000000" fill-rule="nonzero"/>
		<path id="Vector" d="M63.46 33.59C63.39 33.97 63.47 34.37 63.68 34.69C63.9 35.01 64.24 35.23 64.62 35.31L68.84 36.13C69.22 36.2 69.61 36.12 69.93 35.9C70.25 35.68 70.47 35.35 70.55 34.97C70.62 34.59 70.54 34.2 70.32 33.88C70.11 33.56 69.78 33.34 69.4 33.26L65.17 32.43C64.79 32.36 64.4 32.44 64.08 32.66C63.75 32.88 63.53 33.21 63.46 33.59Z" fill="#4F4F4F" fill-opacity="1.000000" fill-rule="nonzero"/>
		<path id="Vector" d="M67.39 21.14L63.4 22.75C63.08 22.88 62.81 23.11 62.64 23.41C62.47 23.71 62.42 24.06 62.48 24.4C62.55 24.74 62.73 25.04 63 25.26C63.27 25.47 63.6 25.59 63.95 25.58C64.14 25.58 64.32 25.54 64.5 25.47L68.49 23.86C68.85 23.71 69.13 23.43 69.28 23.07C69.43 22.71 69.43 22.31 69.29 21.95C69.14 21.6 68.86 21.31 68.51 21.16C68.15 21.01 67.75 21 67.39 21.15L67.39 21.14Z" fill="#4F4F4F" fill-opacity="1.000000" fill-rule="nonzero"/>
		<path id="Vector" d="M57.46 17.67C57.71 17.67 57.94 17.61 58.16 17.5C58.37 17.38 58.55 17.22 58.69 17.02L61.06 13.43C61.25 13.1 61.31 12.72 61.22 12.35C61.14 11.99 60.92 11.67 60.61 11.46C60.29 11.26 59.91 11.18 59.55 11.24C59.18 11.31 58.85 11.51 58.62 11.81L56.25 15.4C56.15 15.56 56.07 15.74 56.04 15.93C56 16.12 56 16.31 56.04 16.5C56.08 16.69 56.15 16.87 56.26 17.03C56.37 17.19 56.5 17.32 56.66 17.43C56.9 17.59 57.18 17.67 57.46 17.67Z" fill="#4F4F4F" fill-opacity="1.000000" fill-rule="nonzero"/>
		<path id="Vector" d="M49.46 13.38L49.46 9.07C49.46 8.88 49.43 8.68 49.36 8.5C49.29 8.31 49.19 8.15 49.05 8C48.91 7.86 48.75 7.75 48.57 7.67C48.39 7.6 48.19 7.56 47.99 7.56C47.8 7.56 47.6 7.6 47.42 7.67C47.24 7.75 47.08 7.86 46.94 8C46.8 8.15 46.7 8.31 46.63 8.5C46.56 8.68 46.52 8.88 46.53 9.07L46.53 13.38C46.55 13.76 46.71 14.11 46.98 14.38C47.25 14.64 47.62 14.79 47.99 14.79C48.37 14.79 48.74 14.64 49.01 14.38C49.28 14.11 49.44 13.76 49.46 13.38Z" fill="#4F4F4F" fill-opacity="1.000000" fill-rule="nonzero"/>
		<path id="Vector" d="M38.52 17.67C38.79 17.67 39.05 17.6 39.27 17.46C39.5 17.33 39.69 17.13 39.81 16.9C39.94 16.67 40 16.41 39.98 16.14C39.97 15.88 39.89 15.62 39.74 15.4L37.37 11.82C37.15 11.51 36.82 11.3 36.45 11.23C36.08 11.16 35.69 11.24 35.38 11.45C35.06 11.65 34.84 11.98 34.75 12.35C34.67 12.71 34.73 13.1 34.93 13.43L37.3 17.02C37.44 17.22 37.62 17.38 37.83 17.5C38.04 17.61 38.28 17.67 38.52 17.67Z" fill="#4F4F4F" fill-opacity="1.000000" fill-rule="nonzero"/>
		<path id="Vector" d="M33.39 24.66C33.47 24.48 33.5 24.29 33.5 24.1C33.5 23.91 33.46 23.72 33.39 23.54C33.31 23.36 33.2 23.2 33.07 23.07C32.93 22.93 32.77 22.83 32.59 22.75L28.6 21.14C28.24 20.99 27.84 21 27.48 21.15C27.13 21.3 26.85 21.59 26.7 21.94C26.56 22.3 26.56 22.7 26.71 23.06C26.86 23.42 27.14 23.7 27.5 23.85L31.49 25.46C31.66 25.53 31.85 25.57 32.04 25.57C32.33 25.57 32.61 25.48 32.86 25.32C33.1 25.16 33.29 24.93 33.39 24.66Z" fill="#4F4F4F" fill-opacity="1.000000" fill-rule="nonzero"/>
		<path id="Vector" d="M30.82 32.44L26.59 33.26C26.23 33.33 25.91 33.53 25.7 33.82C25.48 34.11 25.38 34.47 25.41 34.84C25.45 35.2 25.61 35.53 25.88 35.78C26.15 36.02 26.5 36.16 26.87 36.16C26.96 36.16 27.05 36.15 27.15 36.13L31.37 35.31C31.75 35.24 32.09 35.01 32.31 34.69C32.52 34.37 32.6 33.98 32.53 33.6C32.46 33.22 32.23 32.88 31.91 32.66C31.59 32.45 31.2 32.37 30.82 32.44L30.82 32.44Z" fill="#4F4F4F" fill-opacity="1.000000" fill-rule="nonzero"/>
		<path id="Vector" d="M52.38 86.25C52.09 86.51 51.91 86.87 51.88 87.26C51.86 87.64 51.99 88.02 52.24 88.32L61.6 99.07L34.39 99.07L43.76 88.32C43.89 88.17 43.98 88 44.04 87.82C44.1 87.64 44.13 87.45 44.12 87.26C44.1 87.06 44.05 86.88 43.97 86.71C43.88 86.53 43.76 86.38 43.62 86.26C43.47 86.13 43.3 86.03 43.12 85.97C42.94 85.91 42.75 85.89 42.56 85.9C42.36 85.91 42.18 85.96 42 86.05C41.83 86.14 41.68 86.25 41.55 86.4L27.97 102L68.02 102L54.45 86.4C54.32 86.25 54.17 86.13 54 86.05C53.82 85.96 53.64 85.91 53.45 85.9C53.25 85.88 53.06 85.91 52.88 85.97C52.7 86.03 52.53 86.13 52.38 86.25Z" fill="#4F4F4F" fill-opacity="1.000000" fill-rule="nonzero"/>
		<path id="Vector" d="M71.01 67.73L71.01 63.37C71.02 63.17 70.98 62.97 70.91 62.79C70.84 62.61 70.74 62.44 70.6 62.3C70.46 62.15 70.3 62.04 70.12 61.96C69.94 61.89 69.74 61.85 69.55 61.85C69.35 61.85 69.16 61.89 68.97 61.96C68.79 62.04 68.63 62.15 68.49 62.3C68.36 62.44 68.25 62.61 68.18 62.79C68.11 62.97 68.08 63.17 68.08 63.37L68.08 67.73C68.08 67.93 68.11 68.12 68.18 68.31C68.25 68.49 68.36 68.66 68.49 68.8C68.63 68.94 68.79 69.05 68.97 69.13C69.16 69.21 69.35 69.25 69.55 69.25C69.74 69.25 69.94 69.21 70.12 69.13C70.3 69.05 70.46 68.94 70.6 68.8C70.74 68.66 70.84 68.49 70.91 68.31C70.98 68.12 71.02 67.93 71.01 67.73Z" fill="#4F4F4F" fill-opacity="1.000000" fill-rule="nonzero"/>
		<path id="Vector" d="M39.51 30.93C39.32 30.93 39.13 31.01 39 31.15C38.86 31.28 38.78 31.47 38.78 31.66L38.78 31.69C38.79 31.87 38.87 32.05 39.01 32.18C39.15 32.31 39.33 32.38 39.51 32.38C39.7 32.38 39.88 32.31 40.02 32.18C40.16 32.05 40.24 31.87 40.25 31.69L40.25 31.66C40.25 31.47 40.17 31.28 40.03 31.15C39.89 31.01 39.71 30.93 39.51 30.93Z" fill="#4F4F4F" fill-opacity="1.000000" fill-rule="nonzero"/>
	</g>
</svg>
